# xmcd
#
# Track frame offsets: 
#        150
#        27710
#        59224
#        85700
#        116420
#        144640
#        171684
#        215837
#
# Disc length: 3072 seconds
#
# Revision: 1
# Processed by: cddbd v1.5.2PL0 Copyright (c) Steve Scherf et al.
# Submitted via: ExactAudioCopy v1.0b1
#
DISCID=820bfe08
DTITLE=Wishbone Ash - Melodic Sounds - CD 3 - Throw Down The Sword
DYEAR=2005
DGENRE=Progressive Rock
TTITLE0=Come Rain, Come Shine
TTITLE1=Lifeline (Live)
TTITLE2=Living Proof
TTITLE3=Insomnia
TTITLE4=You See Red
TTITLE5=Throw Down the Sword
TTITLE6=Time Was
TTITLE7=Real Guitars Have Wings
EXTD=
EXTT0=
EXTT1=
EXTT2=
EXTT3=
EXTT4=
EXTT5=
EXTT6=
EXTT7=
PLAYORDER=
